<svg width="29" height="29" viewBox="0 0 29 29" fill="none" xmlns="http://www.w3.org/2000/svg">
<path d="M25.0769 7.76904H3.92308C2.86099 7.76904 2 8.63003 2 9.69212V25.0767C2 26.1388 2.86099 26.9998 3.92308 26.9998H25.0769C26.139 26.9998 27 26.1388 27 25.0767V9.69212C27 8.63003 26.139 7.76904 25.0769 7.76904Z" stroke="black" stroke-width="3" stroke-linecap="round" stroke-linejoin="round"/>
<path d="M7.76929 14.5H21.2308M7.76929 20.2692H21.2308M10.6539 2H18.3462C18.8562 2 19.3454 2.20261 19.706 2.56326C20.0667 2.9239 20.2693 3.41305 20.2693 3.92308V7.76923H8.73083V3.92308C8.73083 3.41305 8.93344 2.9239 9.29408 2.56326C9.65473 2.20261 10.1439 2 10.6539 2Z" stroke="black" stroke-width="3" stroke-linecap="round" stroke-linejoin="round"/>
</svg>
